<svg id="Layer_1" data-name="Layer 1" xmlns="http://www.w3.org/2000/svg" viewBox="0 0 123.69 123.67"><title>icon_white</title><path d="M69.05,83.53l-.83-4.86L68,78.59A19.89,19.89,0,0,1,53.5,84.52c-10.37,0-11.77-7.08-11.77-11.69,0-8.22,5.1-12.17,15.14-13L67.32,59V54.82c0-5.19-.91-8-7.24-8-4.53,0-7.57.32-7.57,6L43.62,52c0-10.53,9.63-11.85,16.62-11.85,11.93,0,16.38,3.38,16.38,14.73V76c0,1.32.08,1.48,1.31,1.65l4,.57v5.27ZM67.32,65l-7.82.66c-6.17.57-8.06,2.3-8.06,6.25s1.89,5.26,5.27,5.26c4,0,8.14-2.46,10.61-4.93Z" style="fill:#f2f2f2"/><path d="M120.75,43.1A61.59,61.59,0,0,0,111,24.29,13,13,0,0,0,91.51,7.63c-.43-.23-.84-.47-1.27-.69A61.82,61.82,0,1,0,61.89,123.67,61.82,61.82,0,0,0,120.75,43.1Zm-8.94,44.58A56.24,56.24,0,0,1,8.25,78.91a56.22,56.22,0,0,1,79.43-67l.5.28a12.94,12.94,0,0,0,15.76,17.6A13.35,13.35,0,0,0,107,28.3a56.34,56.34,0,0,1,4.8,59.38Z" style="fill:#f2f2f2"/></svg>
